<svg xmlns="http://www.w3.org/2000/svg" viewBox="0 0 100 100"><defs><style>.cls-1{fill:#005cfe;}.cls-2{fill:#fdfdfe;}</style></defs><g id="Layer_6" data-name="Layer 6"><g id="JuvZVa"><path class="cls-1" d="M0,50C0,40.77-.1,31.58.07,22.4.22,14.9,3,8.55,9.32,4.09A22.35,22.35,0,0,1,20.3.25,56.53,56.53,0,0,1,26.12,0C42.74,0,59.37,0,76,0c5.17,0,10.15.92,14.5,4A21.42,21.42,0,0,1,99.75,20.1,55.89,55.89,0,0,1,100,26c0,17.13.11,34.26-.08,51.38-.1,8.93-3.88,16-12.11,20.15A25.49,25.49,0,0,1,76.15,100Q50,100,23.83,100c-5.37,0-10.52-1.06-14.95-4.39A21.57,21.57,0,0,1,.21,79.72,59,59,0,0,1,0,73.78Q0,61.87,0,50Zm50-35a35.07,35.07,0,1,0,35,35.13A35,35,0,0,0,50,14.92Z"/><path class="cls-2" d="M50,14.92a35.07,35.07,0,1,1-35.11,35A35,35,0,0,1,50,14.92ZM38.7,50c0,2.92,0,5.83,0,8.75a2.26,2.26,0,0,0,2.52,2.53q8.74,0,17.5,0c1.73,0,2.56-.85,2.56-2.6q0-8.68,0-17.38a2.27,2.27,0,0,0-2.57-2.59q-8.7,0-17.39,0c-1.8,0-2.61.84-2.62,2.66C38.69,44.25,38.7,47.12,38.7,50Z"/><path class="cls-1" d="M38.7,50c0-2.88,0-5.75,0-8.63,0-1.82.82-2.66,2.62-2.66q8.7,0,17.39,0a2.27,2.27,0,0,1,2.57,2.59q0,8.69,0,17.38c0,1.75-.83,2.6-2.56,2.6q-8.76,0-17.5,0a2.26,2.26,0,0,1-2.52-2.53C38.68,55.83,38.7,52.92,38.7,50Z"/></g></g></svg>