<svg id="Layer_1" data-name="Layer 1" xmlns="http://www.w3.org/2000/svg" viewBox="250 0 451 238"><defs><style>.cls-1{fill:#8d8fc6;}.cls-2{fill:#579fd6;}.cls-3{fill:#f27046;}.cls-4{fill:#eb407a;}</style></defs><path class="cls-1" d="M570,55.35a61.13,61.13,0,1,0,61.11,61.1A61.21,61.21,0,0,0,570,55.35Zm-266.4.1-8.2,8.14,53,52.91-53,52.91,8.2,8.2,52.91-53,44.77,44.77,8.14,8.2,114-114-8.14-8.14-52.91,52.91-53-52.91-8.14,8.14-44.77,44.77ZM570,66.84a49.61,49.61,0,1,1-49.61,49.61A49.54,49.54,0,0,1,570,66.84ZM409.45,71.73l44.77,44.77-44.77,44.77L364.68,116.5Z"/></svg>
